<?xml version="1.0" encoding="UTF-8"?>
<svg xmlns="http://www.w3.org/2000/svg" version="1.1" viewBox="0 0 512 512">
  <defs>
    <style>
      .cls-1 {
        fill: #444;
      }
    </style>
  </defs>
  <!-- Generator: Adobe Illustrator 28.7.1, SVG Export Plug-In . SVG Version: 1.2.0 Build 142)  -->
  <g>
    <g id="Layer_1">
      <g>
        <path d="M469.3,448v64H42.7v-64c0-35.4,28.7-64,64-64v-195.7c-25.6-9.1-42.6-33.2-42.7-60.3V0h384V128c0,27.1-17.1,51.3-42.7,60.3v195.7c35.4,0,64,28.6,64,64ZM426.7,469.3v-21.3c0-11.8-9.5-21.3-21.3-21.3H106.7c-11.8,0-21.3,9.5-21.3,21.3v21.3h341.3ZM405.3,128V42.7h-64v64h-42.7V42.7h-85.3v64h-42.7V42.7h-64v85.3c0,11.8,9.6,21.3,21.3,21.3h21.3v234.7h213.3v-234.7h21.3c11.8,0,21.3-9.6,21.3-21.3Z"/>
        <path class="cls-1" d="M426.7,448v21.3H85.3v-21.3c0-11.8,9.6-21.3,21.3-21.3h298.7c11.8,0,21.3,9.5,21.3,21.3Z"/>
        <path class="cls-1" d="M405.3,42.7v85.3c0,11.8-9.5,21.3-21.3,21.3h-21.3v234.7h-213.3v-234.7h-21.3c-11.8,0-21.3-9.6-21.3-21.3V42.7h64v64h42.7V42.7h85.3v64h42.7V42.7h64Z"/>
      </g>
    </g>
  </g>
</svg>