<?xml version="1.0" encoding="UTF-8"?>
<svg xmlns="http://www.w3.org/2000/svg" version="1.1" viewBox="0 0 512 512">
  <defs>
    <style>
      .cls-1 {
        fill: #444;
      }
    </style>
  </defs>
  <!-- Generator: Adobe Illustrator 28.7.1, SVG Export Plug-In . SVG Version: 1.2.0 Build 142)  -->
  <g>
    <g id="Layer_1">
      <g id="Layer_1-2" data-name="Layer_1">
        <g>
          <path d="M469.3,448v64H42.7v-64c0-35.4,28.7-64,64-64s85.3-73.3,85.3-213.3h-42.7v-42.7h33.2c-7.7-12.9-11.8-27.6-11.9-42.7C170.7,38.2,208.9,0,256,0s85.3,38.2,85.3,85.3-4.2,29.8-11.9,42.7h33.2v42.7h-42.7c0,140.1,42.9,213.3,85.3,213.3s64,28.6,64,64h0ZM426.7,469.3v-21.3c0-11.8-9.5-21.3-21.3-21.3H106.7c-11.8,0-21.3,9.5-21.3,21.3v21.3h341.3ZM183.2,384h145.6c-32.5-43.5-51.5-118-51.5-213.3h-42.7c0,95.3-18.9,169.8-51.5,213.3h.1ZM298.7,85.3c0-23.6-19.1-42.7-42.7-42.7s-42.7,19.1-42.7,42.7,19.1,42.7,42.7,42.7,42.7-19.1,42.7-42.7Z"/>
          <path class="cls-1" d="M426.7,448v21.3H85.3v-21.3c0-11.8,9.6-21.3,21.3-21.3h298.7c11.8,0,21.3,9.5,21.3,21.3h.1Z"/>
          <path class="cls-1" d="M328.8,384h-145.6c32.5-43.5,51.5-118,51.5-213.3h42.7c0,95.3,19,169.8,51.5,213.3h-.1Z"/>
          <path class="cls-1" d="M256,42.7c23.6,0,42.7,19.1,42.7,42.7s-19.1,42.7-42.7,42.7-42.7-19.1-42.7-42.7,19.1-42.7,42.7-42.7Z"/>
        </g>
      </g>
    </g>
  </g>
</svg>