<?xml version="1.0" encoding="UTF-8"?>
<svg xmlns="http://www.w3.org/2000/svg" version="1.1" viewBox="0 0 512 512">
  <defs>
    <style>
      .cls-1 {
        fill: #444;
      }
    </style>
  </defs>
  <!-- Generator: Adobe Illustrator 28.7.1, SVG Export Plug-In . SVG Version: 1.2.0 Build 142)  -->
  <g>
    <g id="Layer_1">
      <g id="Layer_1-2" data-name="Layer_1">
        <g>
          <path d="M469.3,448v64H42.7v-64c0-27,17.2-51.1,42.7-60.1v-33.3c0-28.3,18.4-53.2,45.6-61.2,40.6-10.5,73.2-40.6,87.2-80.1H85.3v-42.1c0-26.3,16.2-49.9,40.8-59.6,39.5-16,63.8-36,78.6-95.5L208.7,0h16.7C424.4,0,426.7,179.5,426.7,181.3v206.6c25.5,9,42.5,33,42.7,60.1h-.1ZM426.7,469.3v-21.3c0-11.8-9.5-21.3-21.3-21.3H106.7c-11.8,0-21.3,9.5-21.3,21.3v21.3h341.3ZM384,384v-202.7c0-5.4-2.6-129.4-142.7-138.2-12.7,50.5-50,91.1-99.2,108-8.2,3.1-13.7,10.8-14.1,19.5h142.5l-4.2,24.8c-9.7,66.7-58.1,121.3-123.2,138.8-9,2.7-15.2,11-15.1,20.3v29.4h256Z"/>
          <path class="cls-1" d="M426.7,448v21.3H85.3v-21.3c0-11.8,9.6-21.3,21.3-21.3h298.7c11.8,0,21.3,9.5,21.3,21.3h.1Z"/>
          <path class="cls-1" d="M384,181.3v202.7H128v-29.4c0-9.4,6.1-17.7,15.1-20.3,65.1-17.5,113.6-72.1,123.2-138.8l4.2-24.8h-142.5c.4-8.7,5.9-16.4,14.1-19.5,49.2-16.9,86.6-57.5,99.2-108,140,8.8,142.7,132.8,142.7,138.2h0Z"/>
        </g>
      </g>
    </g>
  </g>
</svg>