<?xml version="1.0" encoding="UTF-8"?>
<svg xmlns="http://www.w3.org/2000/svg" version="1.1" viewBox="0 0 512 512">
  <defs>
    <style>
      .cls-1 {
        fill: #444;
      }
    </style>
  </defs>
  <!-- Generator: Adobe Illustrator 28.7.1, SVG Export Plug-In . SVG Version: 1.2.0 Build 142)  -->
  <g>
    <g id="Layer_1">
      <g id="Layer_1-2" data-name="Layer_1">
        <g>
          <path d="M512,192l-65.1,277.3h21.8v42.7H42v-42.7h21.8L-1.3,192h26.9c13.1,0,26.1,1.4,38.8,4.3,33.4-55.2,88.3-94,151.5-107.1-18.6-20.3-18.6-51.3-.2-71.7,19.7-21.9,53.5-23.6,75.3-3.8,21.9,19.8,23.6,53.5,3.8,75.3,63.3,13,118.2,51.9,151.5,107.3,12.8-2.8,25.8-4.3,38.8-4.3h26.9ZM403.2,469.3l54.3-232.1c-42.2,4.7-74.1,40.3-74.2,82.8h-42.7c0-47.1-38.2-85.3-85.3-85.3s-85.3,38.2-85.3,85.3h-42.7c0-42.5-32-78.1-74.2-82.8l54.5,232.1h295.6ZM362.3,249.7c11.3-15.8,26-28.8,43-38-32.7-51.3-89.1-82.8-150-83.7-60.9,1-117.2,32.4-149.9,83.7,17.1,9.2,31.8,22.2,43,38,9.6-14.6,22-27,36.6-36.6,59.1-38.9,138.4-22.5,177.3,36.6h0Z"/>
          <path class="cls-1" d="M457.5,237.2l-54.3,232.1H107.6l-54.5-232.1c42.2,4.7,74.1,40.3,74.2,82.8h42.7c0-47.1,38.2-85.3,85.3-85.3s85.3,38.2,85.3,85.3h42.7c0-42.5,32-78.1,74.2-82.8Z"/>
          <path class="cls-1" d="M405.3,211.7c-17.1,9.2-31.8,22.2-43,38-38.9-59.1-118.2-75.4-177.3-36.6-14.6,9.6-27,22-36.6,36.6-11.3-15.8-26-28.8-43-38,32.8-51.3,89.1-82.8,149.9-83.7,60.9.9,117.2,32.3,150,83.7h0Z"/>
        </g>
      </g>
    </g>
  </g>
</svg>