<?xml version="1.0" encoding="UTF-8"?>
<svg xmlns="http://www.w3.org/2000/svg" version="1.1" viewBox="0 0 512 512">
  <defs>
    <style>
      .cls-1 {
        fill: #444;
      }
    </style>
  </defs>
  <!-- Generator: Adobe Illustrator 28.7.1, SVG Export Plug-In . SVG Version: 1.2.0 Build 142)  -->
  <g>
    <g id="Layer_1">
      <g>
        <path d="M448,469.3v42.7H64v-42.7h71.6c-45.2-36.4-71.6-91.3-71.6-149.3,0-117.1,124-213.6,166.6-243.2-3.6-2.7-6.8-6-9.4-9.7-13.6-19.3-8.9-45.9,10.4-59.4,19.3-13.5,45.9-8.9,59.4,10.4,13.5,19.3,8.9,45.9-10.4,59.4,39.9,32.1,167.5,142.5,167.5,242.5,0,58-26.3,113-71.6,149.3h71.6ZM405.3,320c0-33.5-21.3-71.7-49.1-107.2l-79.3,99.2-33.3-26.7,84.4-105.5c-22.7-24.4-47.1-47.2-72.9-68.1-37.5,26.4-148.4,112.6-148.4,208.3s66.9,149.3,149.3,149.3,149.3-66.9,149.3-149.3Z"/>
        <path class="cls-1" d="M356.3,212.8c27.7,35.5,49.1,73.7,49.1,107.2,0,82.5-66.9,149.3-149.3,149.3s-149.3-66.9-149.3-149.3,110.9-181.9,148.4-208.3c25.9,21,50.2,43.8,72.9,68.1l-84.4,105.5,33.3,26.7,79.3-99.2Z"/>
      </g>
    </g>
  </g>
</svg>