<?xml version="1.0" encoding="UTF-8"?>
<svg xmlns="http://www.w3.org/2000/svg" version="1.1" viewBox="0 0 512 512">
  <defs>
    <style>
      .cls-1 {
        fill: #444;
      }
    </style>
  </defs>
  <!-- Generator: Adobe Illustrator 28.7.1, SVG Export Plug-In . SVG Version: 1.2.0 Build 142)  -->
  <g>
    <g id="Layer_1">
      <g id="Layer_1-2" data-name="Layer_1">
        <g>
          <path d="M504.5,210c8.1,15,9.8,32.7,4.7,49l-64.7,210.3h24.9v42.7H42.7v-42.7h24.9L2.9,259c0-.1,0-.2,0-.3-10.3-33.8,8.8-69.4,42.5-79.7,61.8-17.1,125.3-26.8,189.4-29.1v-43.2h-64v-42.7h64V0h42.7v64h64v42.7h-64v43.2c64.1,2.3,127.6,12.1,189.4,29.1,16.2,4.9,29.8,16,37.7,31ZM468.4,246.4c1.7-5.5,1.2-11.4-1.5-16.5-2.6-4.9-7.1-8.6-12.4-10.2-64.7-17.7-131.4-27-198.4-27.7-67.1.7-133.7,10-198.4,27.7-5.4,1.6-9.8,5.3-12.4,10.3-2.7,5-3.3,11-1.6,16.4l68.6,222.9h287.6l68.6-222.9h-.1Z"/>
          <path class="cls-1" d="M466.8,229.9c2.7,5.1,3.3,11,1.5,16.5l-68.6,222.9H112.2L43.6,246.4c-1.7-5.5-1.1-11.4,1.6-16.4,2.6-5,7.1-8.7,12.4-10.3,64.7-17.7,131.3-27,198.4-27.7,67,.7,133.7,10,198.4,27.7,5.4,1.6,9.8,5.3,12.4,10.2Z"/>
        </g>
      </g>
    </g>
  </g>
</svg>